<?xml version="1.0" standalone="no"?>
<!DOCTYPE svg PUBLIC "-//W3C//DTD SVG 20010904//EN"
 "http://www.w3.org/TR/2001/REC-SVG-20010904/DTD/svg10.dtd">
<svg version="1.0" xmlns="http://www.w3.org/2000/svg"
 width="486.000000pt" height="486.000000pt" viewBox="0 0 486.000000 486.000000"
 preserveAspectRatio="xMidYMid meet">
<metadata>
Created by potrace 1.14, written by Peter Selinger 2001-2017
</metadata>
<g transform="translate(0.000000,486.000000) scale(0.100000,-0.100000)"
fill="#000000" stroke="none">
<path d="M2209 4806 c-2 -2 -38 -6 -79 -10 -41 -3 -86 -8 -100 -11 -13 -3 -42
-7 -65 -10 -77 -11 -290 -69 -375 -102 -8 -4 -17 -7 -20 -8 -91 -31 -268 -119
-375 -185 -74 -47 -227 -157 -284 -206 -54 -46 -273 -267 -311 -315 -19 -23
-43 -51 -53 -61 -9 -10 -14 -18 -11 -18 3 0 -2 -7 -10 -16 -35 -35 -150 -219
-209 -335 -92 -180 -139 -310 -186 -509 -48 -207 -56 -285 -56 -580 0 -210 6
-329 20 -401 3 -13 10 -51 15 -84 29 -179 123 -449 222 -635 53 -102 156 -261
210 -327 18 -22 48 -59 66 -81 67 -83 234 -247 363 -356 41 -34 218 -155 274
-187 207 -116 456 -212 650 -249 33 -6 79 -16 101 -21 147 -32 638 -34 819 -3
17 2 37 5 45 6 12 0 112 22 204 43 23 5 85 24 106 32 8 3 20 7 25 8 36 9 211
80 216 87 3 5 9 9 13 8 7 -1 132 61 186 93 40 24 170 107 185 119 168 129 367
320 474 453 31 39 59 72 64 73 4 2 7 8 7 14 0 5 6 16 13 23 32 37 87 120 87
134 0 5 4 11 9 13 11 4 129 231 156 298 9 25 33 88 51 140 30 82 41 120 59
200 2 8 9 38 15 65 17 74 25 121 37 232 10 88 10 530 0 610 -4 35 -10 82 -13
105 -3 24 -7 49 -10 57 -3 8 -7 30 -10 50 -33 212 -171 549 -318 776 -165 254
-455 547 -701 706 -97 63 -129 83 -135 82 -3 0 -21 10 -40 21 -167 103 -503
214 -735 242 -22 3 -51 8 -65 11 -28 6 -524 15 -531 9z m506 -296 c72 -12 154
-28 184 -37 29 -8 61 -17 70 -18 9 -2 17 -4 19 -5 1 -2 5 -3 10 -5 4 -1 14 -4
22 -7 8 -3 44 -16 80 -28 36 -12 79 -28 95 -35 35 -16 88 -38 95 -40 6 -1 51
-25 140 -73 136 -74 327 -213 437 -318 58 -56 178 -195 220 -258 15 -22 34
-47 41 -54 6 -7 12 -17 12 -22 0 -5 6 -15 13 -22 6 -7 23 -33 36 -58 14 -25
27 -47 30 -50 15 -13 116 -232 151 -328 36 -98 81 -254 95 -327 37 -197 52
-431 35 -540 -4 -27 -11 -74 -14 -104 -9 -73 -42 -225 -71 -322 -27 -89 -107
-294 -134 -343 -10 -17 -37 -67 -61 -111 -24 -44 -47 -81 -52 -83 -4 -2 -8
-11 -8 -20 0 -11 -20 4 -57 41 -31 31 -59 57 -63 57 -7 0 -36 23 -75 59 -11
10 -58 50 -105 90 -118 100 -363 353 -413 426 -22 33 -57 80 -77 105 -77 95
-109 160 -79 160 7 0 45 15 83 34 137 67 159 74 222 71 42 -3 75 3 116 18 l56
21 11 56 c11 53 10 57 -22 120 -33 62 -47 77 -185 191 -12 11 -27 19 -32 19
-6 0 -10 4 -10 9 0 5 -26 22 -57 37 -32 14 -59 28 -61 29 -2 2 7 27 21 57 30
66 44 111 52 168 3 25 15 90 25 145 11 55 21 115 24 134 3 18 9 38 15 44 6 6
11 26 11 44 0 28 6 37 32 51 55 29 98 77 98 109 0 39 -57 120 -121 174 -62 51
-98 90 -99 105 0 16 -41 51 -73 63 -27 11 -174 18 -182 9 -3 -3 -8 -25 -11
-49 -3 -24 -7 -45 -9 -47 -5 -5 -604 -121 -648 -124 -26 -2 -73 1 -104 7 -51
10 -147 4 -162 -11 -4 -3 24 -38 96 -122 55 -63 56 -68 60 -167 5 -108 3
-1523 -2 -1615 -1 -36 -3 -113 -4 -171 l-1 -107 -59 -35 c-81 -48 -151 -69
-215 -65 l-54 3 -6 -37 c-8 -47 21 -125 69 -190 27 -37 54 -57 113 -87 85 -43
192 -81 228 -81 12 0 34 -6 49 -14 55 -29 118 11 155 97 13 29 41 75 63 102
42 51 198 209 346 349 l83 78 56 -94 c191 -316 313 -444 412 -433 76 9 218 25
280 30 36 4 80 10 98 15 17 5 32 5 32 0 0 -5 -3 -10 -7 -12 -5 -1 -35 -37 -68
-78 -131 -165 -287 -296 -530 -447 -36 -23 -263 -134 -277 -137 -7 -1 -19 -5
-25 -9 -27 -17 -242 -85 -318 -101 -326 -68 -538 -69 -835 -5 -99 22 -338 96
-354 111 -6 4 -18 8 -28 8 -10 0 -18 5 -18 10 0 6 -7 10 -15 10 -16 0 -213
100 -278 141 -170 107 -395 301 -474 407 -16 20 -36 45 -45 56 -28 31 -118
165 -118 176 0 5 -3 10 -8 10 -4 0 -18 21 -32 48 -13 26 -27 49 -30 52 -11 10
-93 187 -127 275 -34 86 -88 260 -98 315 -3 14 -7 36 -10 50 -30 148 -39 236
-39 380 -1 154 5 208 49 428 12 63 50 188 87 287 50 137 149 339 173 357 6 4
7 8 3 8 -7 0 99 161 144 220 173 223 402 410 673 551 96 49 277 127 309 133 6
1 49 14 96 29 85 26 249 59 370 75 108 15 323 6 465 -18z m421 -956 c8 -54 1
-280 -9 -290 -4 -4 -17 2 -30 13 -37 35 -111 62 -168 64 -96 1 -104 5 -148 73
-23 34 -41 65 -41 68 0 3 9 8 20 11 11 3 21 6 23 6 1 0 36 12 77 27 41 14 80
27 85 28 6 1 33 9 60 18 115 38 122 37 131 -18z m-15 -536 c-1 -51 -5 -96 -9
-100 -4 -4 -23 -10 -41 -13 -19 -3 -69 -17 -110 -30 -131 -42 -172 -50 -181
-35 -10 17 0 171 13 188 5 6 17 12 26 12 9 1 79 18 156 39 77 21 142 37 144
35 2 -1 3 -45 2 -96z m219 -326 c0 -17 -15 -43 -40 -72 -41 -45 -52 -59 -123
-151 -37 -47 -67 -63 -67 -36 0 12 -36 56 -116 138 -24 26 -44 49 -44 52 0 8
97 34 155 42 96 13 110 15 158 26 27 6 51 18 54 25 8 22 23 6 23 -24z m-527
-330 c8 -9 29 -47 46 -84 16 -37 59 -116 94 -175 35 -59 78 -134 96 -166 l32
-57 -88 -57 c-106 -69 -212 -125 -226 -120 -12 4 -13 65 -4 187 12 149 21 344
18 385 -5 94 -4 105 7 105 5 0 16 -8 25 -18z"/>
<path d="M1600 4014 c-25 -7 -55 -14 -67 -14 -12 0 -25 -4 -28 -10 -7 -12 20
-55 62 -97 41 -41 45 -26 -79 -293 -32 -69 -123 -221 -152 -255 -14 -16 -26
-33 -26 -37 0 -4 -6 -13 -12 -20 -16 -17 -141 -205 -158 -238 -7 -14 -47 -68
-89 -121 -42 -52 -89 -113 -106 -134 -42 -55 -127 -137 -197 -192 -56 -44 -58
-48 -37 -56 13 -4 53 -5 89 -2 36 3 81 8 100 9 53 5 190 56 230 84 19 15 62
52 95 84 33 32 66 58 73 58 7 0 33 -14 58 -31 78 -53 153 -83 210 -81 59 1 60
0 69 -81 5 -38 3 -56 -7 -64 -37 -28 -512 -135 -553 -124 -25 7 -75 8 -75 2 0
-14 75 -67 199 -141 158 -94 183 -97 324 -46 54 20 100 36 102 36 3 0 5 -114
5 -254 0 -159 4 -257 10 -261 6 -3 10 -15 10 -25 0 -20 -20 -33 -93 -64 l-38
-15 7 32 c14 63 16 230 3 277 -13 45 -79 120 -106 120 -7 0 -13 4 -13 8 0 5
-23 19 -52 33 -55 26 -113 30 -236 16 -81 -9 -112 -17 -112 -29 0 -12 41 -46
80 -68 15 -8 39 -28 52 -45 21 -25 88 -157 138 -270 16 -37 89 -95 119 -95 14
0 21 -5 19 -12 -6 -18 -87 -59 -225 -114 -113 -45 -118 -46 -167 -35 -28 6
-66 20 -84 31 -18 11 -36 20 -40 20 -4 0 -8 -39 -7 -87 l0 -88 69 -51 c38 -28
93 -64 124 -79 30 -15 63 -36 72 -45 29 -29 103 -76 139 -88 48 -17 116 -15
131 3 7 8 18 15 25 15 7 0 18 13 25 30 7 16 18 35 26 41 8 6 14 24 14 40 0 41
47 82 201 174 74 44 136 83 137 87 2 5 8 8 13 8 5 0 60 31 121 68 62 38 140
84 173 102 87 48 105 67 105 109 0 46 -8 57 -51 75 -43 18 -189 11 -232 -11
-41 -21 -57 -11 -50 29 6 39 5 37 29 43 48 10 88 26 214 82 25 12 59 24 77 27
36 8 138 92 146 120 10 33 -3 49 -112 144 -38 33 -109 64 -140 60 -21 -2 -27
-9 -29 -33 -2 -22 -24 -51 -75 -102 -39 -40 -75 -73 -78 -73 -12 0 2 214 14
227 7 7 52 21 102 31 49 11 91 25 93 31 2 6 10 11 18 11 31 0 92 40 103 68 17
40 -7 89 -47 98 -15 4 -31 10 -37 14 -25 17 -101 30 -130 22 -42 -12 -67 -7
-85 18 -8 12 -32 41 -52 65 -21 23 -38 45 -38 48 0 3 26 11 58 17 147 30 188
49 208 97 14 33 14 38 -8 81 -33 66 -97 99 -205 107 -62 5 -89 3 -110 -8 -15
-8 -51 -26 -79 -40 -54 -28 -222 -73 -313 -84 -47 -5 -53 -4 -45 10 11 19 134
157 185 207 19 19 61 72 93 117 32 45 68 91 80 102 l21 20 111 -107 c122 -119
240 -217 293 -244 45 -23 93 -23 120 0 61 49 59 258 -3 322 -68 71 -117 99
-289 164 l-97 38 21 29 c14 20 37 34 75 45 31 9 55 21 55 30 1 8 2 20 2 27 3
37 -16 78 -49 108 -21 19 -65 61 -98 94 -77 76 -129 116 -187 143 -52 25 -85
27 -149 6z"/>
</g>
</svg>
